<svg xmlns="http://www.w3.org/2000/svg" width="26" height="17"><title>bed-icon</title><desc>Created with Sketch.</desc><g fill="none"><g fill="#08f"><g><g><g><g><g><path d="M0 12.74c0 .94.8 1.7 1.77 1.7h.65v1c0 .7.6 1.28 1.32 1.28.73 0 1.32-.57 1.32-1.27v-1h15.86v1c0 .7.6 1.27 1.33 1.27.73 0 1.32-.57 1.32-1.27v-1h.64c1 0 1.78-.77 1.8-1.7V9.2c-.02-.94-.8-1.7-1.8-1.7h-.63V3.57C23.57 1.6 21.9 0 19.87 0H6.12c-2.04 0-3.7 1.6-3.7 3.58v3.9h-.65C.8 7.5 0 8.27 0 9.2v3.54zm4.1 2.7c0 .2-.17.35-.36.35-.2 0-.36-.16-.36-.35v-1h.7v1zm18.5 0c0 .2-.16.35-.35.35-.2 0-.36-.16-.36-.35v-1h.7v1zM3.38 3.6C3.38 2.14 4.6.95 6.12.95h13.74c1.5 0 2.74 1.2 2.74 2.65v3.9h-1.02v-.75c0-1.12-.94-2.02-2.1-2.02h-3.93c-1.16 0-2.1.9-2.1 2.02v.74h-.96v-.75c0-1.12-.95-2.02-2.1-2.02H6.44c-1.16 0-2.1.9-2.1 2.02v.74H3.4l-.02-3.9zm17.24 3.15v.74h-6.2v-.75c0-.6.5-1.1 1.13-1.1h3.94c.6 0 1.12.5 1.12 1.1zm-9.1 0v.74h-6.2v-.75c0-.6.5-1.1 1.13-1.1h3.94c.6 0 1.12.5 1.12 1.1zM.97 9.2c0-.43.36-.78.8-.78H24.2c.46 0 .82.35.82.78v3.54c0 .43-.36.78-.8.78H1.76c-.44 0-.8-.35-.8-.78V9.2z"/></g></g></g></g></g></g></g></svg>