<svg xmlns="http://www.w3.org/2000/svg" viewBox="0 0 510.45 218.46"><defs><style>.cls-1{font-size:35px;font-family:Avenir-Black, Avenir;letter-spacing:0.18em;}.cls-1,.cls-3,.cls-5{fill:#005fb5;}.cls-2{font-family:Avenir-Light, Avenir;letter-spacing:0.18em;}.cls-3{font-size:13px;font-family:Avenir-Book, Avenir;letter-spacing:0.11em;}.cls-4{letter-spacing:0.02em;}</style></defs><title>logo</title><g id="Layer_2" data-name="Layer 2"><g id="logo"><text class="cls-1" transform="translate(0 147.54)">VIVIAN<tspan class="cls-2" x="162.26" y="0">YU</tspan></text><text class="cls-3" transform="translate(0 165.54)">OAKWYN REA<tspan class="cls-4" x="100.05" y="0">L</tspan><tspan x="106.78" y="0">TY </tspan><tspan class="cls-4" x="129.61" y="0">L</tspan><tspan x="136.34" y="0">TD.</tspan></text><path class="cls-5" d="M498.61,12.3c-16.25-17-41-12.68-61.86-8.61-27.52,5.38-53.34,17.34-77.65,31a521.17,521.17,0,0,0-44.33,28.25c.61-4.81,1.13-9.63,1.54-14.46.68-8,0-16.13.92-24.13.14-1.3-.58-8.09-3-5.3-13.75,15.7-30.77,29-48,40.78-4,2.74-8.64,5.68-13.56,6.31-9.28,1.19-7.78-8.49-6.44-14.78,1.93-9,4.72-17.5,5.2-26.77,0-.74-.63-5.92-2.61-4.52C242,24.82,235,31,226.54,32c-4.69.59-21.45-2.51-20-10.46.17-1,1.1-3.44.7-4.6-.78-2.25-3.44-2.64-4.47,1a148.94,148.94,0,0,1-18.77,41.64,150.69,150.69,0,0,1-11.11,14.79c-2,2.29-3.36,4.5-5.44,6.87-1.26,1.51-4,4.48-4,4.48a24,24,0,0,1-.19-2.75c.35-22.55-.34-45.15-.34-67.7,0-1.05-1.13-6.76-3.11-4Q156,16.33,152,21.14t-8.46,9.32q-4.38,4.49-9.06,8.67t-9.62,8q-4.94,3.83-10.13,7.31T104.12,61q-5.4,3.12-11,5.86T81.74,72Q76,74.36,70,76.33t-12,3.54Q52,81.44,45.85,82.59T33.46,84.48q-6.24.73-12.53,1t-12.62.15c-1.91,0-4-.53-5.69.52a4.66,4.66,0,0,0,.51,8.25c1.73.83,3.91.6,5.78.64q6.37.13,12.73-.19t12.64-1.08q6.28-.76,12.5-2T59.11,89q6.1-1.61,12.08-3.62T83,81q5.82-2.41,11.48-5.2t11.1-6q5.45-3.17,10.68-6.69t10.22-7.4q5-3.88,9.7-8.09t9.14-8.76q4.43-4.55,8.54-9.4,2.51-3,4.89-6c0,8.66,0,17.32,0,26q.07,14.5.23,29c0,3-1.62,12.42,1.41,14.89,5.61,4.58,23-21.66,25.61-25.61A155.57,155.57,0,0,0,204,30.18c2.28,4.61,6.65,8.09,12.26,10,11.43,3.9,20.82-2,29.77-8.3-3.71,16.49-12.58,49,9.48,43,11.55-3.16,22.07-13.37,31.32-20.52a216.15,216.15,0,0,0,25.79-23.13c-.33,7.82-.26,15.67-1.12,23.5-.43,3.9-1,7.79-1.52,11.67q-10.47,7.48-20.66,15.19A175.54,175.54,0,0,0,241,138.09c-10.53,19.48-18.58,44.75-14.19,67.11,1.75,8.94,8.36,13.87,17.47,13.19,10-.74,18.81-7.78,25.42-14.84,21.23-22.68,27.93-53.7,34.48-82.89,3.47-15.45,6.51-30.73,9-46.38q3.65-2.5,7.26-5C356.93,43.75,397.08,20,441.55,12.19c20.36-3.56,44-6.76,58.06,11.77,7.69,10.13,6.72,27.92.13,36.68a32.65,32.65,0,0,1-13.35,10.59c-4.23,1.73-16.3,4-14.85-4.11.75-4.17-3.91-5.86-4.88-2-2.43,9.78,4.8,14.12,12.11,14.07,26.1-.2,37.28-31,29-52.51A43.71,43.71,0,0,0,498.61,12.3ZM305.45,91.46c-4.73,22.13-8.28,45.52-16.11,66.79-6.79,18.42-19.29,42.59-39.27,49.57a21.89,21.89,0,0,1-10.53,1.09c-7.62-1.29-9.37-7.46-9.46-14.55a92,92,0,0,1,6.39-33.53c7.37-19.47,19.67-36.92,33.68-52.18,11-12,24.47-21.61,38-30.89C307.29,82.33,306.42,86.9,305.45,91.46Z"/></g></g></svg>