<svg xmlns="http://www.w3.org/2000/svg" width="15" height="17"><title>shower-black</title><desc>Created with Sketch.</desc><g fill="none"><g fill="#000"><g><g><g><g><g><path d="M3.22 10.25c-.16 0-.3.13-.3.28v.57c0 .16.14.28.3.28.15 0 .28-.12.28-.28v-.54c0-.18-.13-.3-.28-.3zM3.22 12c-.16 0-.3.13-.3.3v.58c0 .15.14.28.3.28.15 0 .28-.13.28-.28v-.57c0-.17-.13-.3-.28-.3zM3.22 13.75c-.16 0-.3.13-.3.3v.55c0 .16.14.3.3.3.15 0 .28-.14.28-.3v-.56c0-.16-.13-.3-.28-.3zM3.22 15.5c-.16 0-.3.13-.3.3v.56c0 .15.14.28.3.28.15 0 .28-.13.28-.28v-.57c0-.17-.13-.3-.28-.3zM4.35 11.13c-.16 0-.28.13-.28.28V12c0 .15.12.28.28.28.15 0 .28-.13.28-.28v-.57c0-.14-.13-.27-.28-.27zM4.35 12.88c-.16 0-.28.13-.28.28v.57c0 .15.12.28.28.28.15 0 .28-.12.28-.27v-.57c0-.15-.13-.28-.28-.28zM4.35 14.63c-.16 0-.28.13-.28.28v.58c0 .15.12.28.28.28.15 0 .28-.13.28-.28v-.57c0-.14-.13-.27-.28-.27zM5.48 10.25c-.16 0-.28.13-.28.28v.57c0 .16.12.28.28.28.15 0 .28-.12.28-.28v-.54c0-.18-.13-.3-.28-.3zM5.48 12c-.16 0-.28.13-.28.3v.58c0 .15.12.28.28.28.15 0 .28-.13.28-.28v-.57c0-.17-.13-.3-.28-.3zM5.48 13.75c-.16 0-.28.13-.28.3v.55c0 .16.12.3.28.3.15 0 .28-.14.28-.3v-.56c0-.16-.13-.3-.28-.3zM5.48 15.5c-.16 0-.28.13-.28.3v.56c0 .15.12.28.28.28.15 0 .28-.13.28-.28v-.57c0-.17-.13-.3-.28-.3zM6.58 11.13c-.15 0-.28.13-.28.28V12c0 .15.13.28.28.28.16 0 .3-.13.3-.28v-.57c0-.14-.14-.27-.3-.27zM6.58 12.88c-.15 0-.28.13-.28.28v.57c0 .15.13.28.28.28.16 0 .3-.12.3-.27v-.57c0-.15-.14-.28-.3-.28zM6.58 14.63c-.15 0-.28.13-.28.28v.58c0 .15.13.28.28.28.16 0 .3-.13.3-.28v-.57c0-.14-.14-.27-.3-.27zM7.7 10.25c-.14 0-.27.13-.27.28v.57c0 .16.13.28.28.28.17 0 .3-.12.3-.28v-.54c0-.18-.13-.3-.3-.3zM7.7 12c-.14 0-.27.13-.27.3v.58c0 .15.13.28.28.28.17 0 .3-.13.3-.28v-.57c0-.17-.13-.3-.3-.3zM7.7 13.75c-.14 0-.27.13-.27.3v.55c0 .16.13.3.28.3.17 0 .3-.14.3-.3v-.56c0-.16-.13-.3-.3-.3zM7.7 15.5c-.14 0-.27.13-.27.3v.56c0 .15.13.28.28.28.17 0 .3-.13.3-.28v-.57c0-.17-.13-.3-.3-.3zM8.85 11.13c-.16 0-.3.13-.3.28V12c0 .15.14.28.3.28.15 0 .28-.13.28-.28v-.57c0-.14-.13-.27-.28-.27zM8.85 12.88c-.16 0-.3.13-.3.28v.57c0 .15.14.28.3.28.15 0 .28-.12.28-.27v-.57c0-.15-.13-.28-.28-.28zM8.85 14.63c-.16 0-.3.13-.3.28v.58c0 .15.14.28.3.28.15 0 .28-.13.28-.28v-.57c0-.14-.13-.27-.28-.27zM2.1 11.13c-.17 0-.3.13-.3.28V12c0 .15.13.28.3.28.14 0 .27-.13.27-.28v-.57c.02-.14-.13-.27-.28-.27zM2.1 12.88c-.17 0-.3.13-.3.28v.57c0 .15.13.28.3.28.14 0 .27-.12.27-.27v-.57c.02-.15-.13-.28-.28-.28zM2.1 14.63c-.17 0-.3.13-.3.28v.58c0 .15.13.28.3.28.14 0 .27-.13.27-.28v-.57c.02-.14-.13-.27-.28-.27zM9.7.08C7.24.08 5.2 1.96 5 4.33 2.6 4.58.74 6.6.74 9.03c0 .3.23.53.5.53H9.7c.28 0 .5-.24.5-.52 0-2.42-1.82-4.43-4.18-4.7.23-1.84 1.8-3.26 3.67-3.26 2.02 0 3.7 1.68 3.7 3.7v11.55c0 .28.23.52.5.52.3 0 .52-.24.52-.52V4.83c0-2.6-2.13-4.75-4.73-4.75zm-.57 8.45H1.8c.26-1.8 1.8-3.2 3.68-3.2 1.85 0 3.42 1.4 3.65 3.2z"/></g></g></g></g></g></g></g></svg>