<svg xmlns="http://www.w3.org/2000/svg" width="18" height="17"><title>sqft-black</title><desc>Created with Sketch.</desc><g fill="none"><g fill="#000"><g><g><g><g><path d="M17.03 0H5.7c-.27 0-.48.2-.48.47V11.8c0 .27.2.48.47.48h11.33c.26 0 .47-.2.47-.47V.48c0-.26-.2-.47-.47-.47zm-.47 11.33H6.16V.93h10.4v10.4zM1.3 10.05c-.18-.18-.48-.18-.66 0-.2.2-.2.5 0 .67l1.42 1.42c.1.1.2.14.33.14.1 0 .23-.05.32-.14l1.42-1.42c.18-.18.18-.48 0-.66-.2-.2-.48-.2-.67 0l-.6.6V1.62l.6.62c.1.1.2.14.34.14.13 0 .25-.04.34-.14.18-.18.18-.48 0-.66L2.72.14c-.18-.2-.48-.2-.66 0L.64 1.56c-.2.18-.2.48 0 .66.18.2.48.2.67 0l.62-.6v9.05l-.6-.62zM15.95 13.36c-.2-.18-.5-.18-.67 0-.2.2-.2.48 0 .67l.6.6H6.84l.6-.6c.2-.2.2-.5 0-.67-.17-.18-.47-.18-.65 0l-1.42 1.42c-.18.18-.18.48 0 .66l1.42 1.42c.1.1.2.14.33.14s.25-.05.35-.14c.18-.18.18-.48 0-.67l-.62-.62h9.06l-.62.6c-.2.2-.2.5 0 .68.1.1.2.14.33.14s.25-.05.35-.14l1.4-1.4c.2-.2.2-.5 0-.68l-1.4-1.42z"/></g></g></g></g></g></g></svg>