<svg xmlns="http://www.w3.org/2000/svg" width="375" height="563" xmlns:xlink="http://www.w3.org/1999/xlink"><title>sqft-icon</title><desc>Created with Sketch.</desc><defs><rect id="a" width="375" height="563" rx="5"/><mask id="b" width="375" height="563" x="0" y="0"><use xlink:href="#a"/></mask></defs><g fill="none"><g><g><g><g><g><g><g transform="translate(0 0)"><path fill="#08f" d="M188.53 515H177.2c-.27 0-.48.2-.48.47v11.34c0 .27.2.48.47.48h11.33c.26 0 .47-.2.47-.47v-11.33c0-.26-.2-.47-.47-.47zm-.47 11.33h-10.4v-10.4h10.4v10.4zM172.8 525.05c-.18-.18-.48-.18-.66 0-.2.2-.2.5 0 .67l1.42 1.42c.1.1.2.14.33.14.1 0 .23-.05.32-.14l1.42-1.42c.18-.18.18-.48 0-.66-.2-.2-.48-.2-.67 0l-.6.6v-9.05l.6.62c.1.1.2.14.34.14.13 0 .25-.04.34-.14.18-.18.18-.48 0-.66l-1.42-1.42c-.18-.2-.48-.2-.66 0l-1.42 1.42c-.2.18-.2.48 0 .66.18.2.48.2.67 0l.62-.6v9.05l-.6-.62zM187.45 528.36c-.2-.18-.5-.18-.67 0-.2.2-.2.48 0 .67l.6.6h-9.05l.6-.6c.2-.2.2-.5 0-.67-.17-.18-.47-.18-.65 0l-1.42 1.42c-.18.18-.18.48 0 .66l1.42 1.42c.1.1.2.14.33.14s.25-.05.35-.14c.18-.18.18-.48 0-.67l-.62-.62h9.06l-.62.6c-.2.2-.2.5 0 .68.1.1.2.14.33.14s.25-.05.35-.14l1.4-1.4c.2-.2.2-.5 0-.68l-1.4-1.42z"/><use stroke="#1353BA" stroke-width="2" mask="url(#b)" xlink:href="#a"/></g></g></g></g></g></g></g></g></svg>